<svg width="743" height="538" viewBox="0 0 743 538" fill="none" xmlns="http://www.w3.org/2000/svg">
<path d="M699.145 524.672C699.145 531.885 693.296 537.734 686.085 537.734H56.9167C49.7036 537.734 43.8547 531.885 43.8547 524.672C43.8547 517.459 49.7036 511.61 56.9167 511.61H686.085C693.298 511.609 699.145 517.458 699.145 524.672Z" fill="#E8E1C8"/>
<path d="M435.558 521.164C435.558 522.108 434.787 522.879 433.845 522.879H283.916C282.973 522.879 282.203 522.106 282.203 521.164V515.168C282.203 514.224 282.974 513.456 283.916 513.456H433.846C434.79 513.456 435.56 514.226 435.56 515.168V521.164H435.558Z" fill="#0049AD"/>
<path d="M386.18 469.004H360.416H357.346H331.581C331.581 493.807 294.293 514.707 294.293 514.707H357.346H360.416H423.468C423.468 514.707 386.18 493.807 386.18 469.004Z" fill="#2B6AC0"/>
<path opacity="0.4" d="M386.18 469.004H360.416H357.346H346.28C354.047 483.391 367.611 501.099 390.83 514.707H423.47C423.47 514.707 386.18 493.807 386.18 469.004Z" fill="#0049AD"/>
<path d="M590.685 466.032C590.685 467.667 589.348 469.004 587.713 469.004H130.049C128.414 469.004 127.077 467.667 127.077 466.032V188.908C127.077 187.273 128.414 185.936 130.049 185.936H587.713C589.348 185.936 590.685 187.273 590.685 188.908V466.032Z" fill="#0049AD"/>
<path d="M573.157 450.429C573.157 452.064 571.82 453.401 570.185 453.401H147.576C145.941 453.401 144.604 452.064 144.604 450.429V204.511C144.604 202.876 145.941 201.539 147.576 201.539H570.187C571.822 201.539 573.159 202.876 573.159 204.511V450.429H573.157Z" fill="#48CAD9"/>
<path d="M573.157 221.965V204.512C573.157 202.877 571.82 201.54 570.185 201.54H147.576C145.941 201.54 144.604 202.877 144.604 204.512V221.965H573.157Z" fill="#1EB3BA"/>
<path d="M175.528 216.038C177.895 216.038 179.813 214.119 179.813 211.752C179.813 209.385 177.895 207.467 175.528 207.467C173.161 207.467 171.242 209.385 171.242 211.752C171.242 214.119 173.161 216.038 175.528 216.038Z" fill="white"/>
<path d="M157.696 216.038C160.063 216.038 161.981 214.119 161.981 211.752C161.981 209.385 160.063 207.467 157.696 207.467C155.329 207.467 153.41 209.385 153.41 211.752C153.41 214.119 155.329 216.038 157.696 216.038Z" fill="white"/>
<path d="M193.36 216.038C195.727 216.038 197.645 214.119 197.645 211.752C197.645 209.385 195.727 207.467 193.36 207.467C190.993 207.467 189.074 209.385 189.074 211.752C189.074 214.119 190.993 216.038 193.36 216.038Z" fill="white"/>
<path d="M540.807 237.797H176.953V311.125H540.807V237.797Z" fill="#76E0E5"/>
<path d="M330.245 323.013H176.953V371.871H330.245V323.013Z" fill="#76E0E5"/>
<path d="M330.245 382.685H176.953V389.895H330.245V382.685Z" fill="#76E0E5"/>
<path d="M330.245 397.545H176.953V404.755H330.245V397.545Z" fill="#76E0E5"/>
<path d="M330.245 412.405H176.953V419.615H330.245V412.405Z" fill="#76E0E5"/>
<path d="M330.245 427.265H176.953V434.475H330.245V427.265Z" fill="#76E0E5"/>
<path d="M419.807 323.013H344.021V404.755H419.807V323.013Z" fill="#76E0E5"/>
<path d="M419.688 412.405H343.16V419.615H419.688V412.405Z" fill="#76E0E5"/>
<path d="M419.688 427.265H343.16V434.475H419.688V427.265Z" fill="#76E0E5"/>
<path d="M540.807 323.013H435.558V371.871H540.807V323.013Z" fill="#76E0E5"/>
<path d="M538.974 382.685H435.558V389.895H538.974V382.685Z" fill="#76E0E5"/>
<path d="M538.974 397.545H435.558V404.755H538.974V397.545Z" fill="#76E0E5"/>
<path d="M538.974 412.405H435.558V419.615H538.974V412.405Z" fill="#76E0E5"/>
<path d="M538.974 427.265H435.558V434.475H538.974V427.265Z" fill="#76E0E5"/>
<path opacity="0.1" d="M590.685 466.032V188.908C590.685 187.273 589.348 185.936 587.713 185.936H547.497C535.187 406.573 311.824 469.002 311.824 469.002H587.713C589.348 469.004 590.685 467.665 590.685 466.032Z" fill="#0049AD"/>
<path d="M165.802 377.382C164.167 377.382 162.43 378.655 161.941 380.217L156.287 398.267C155.799 399.826 154.062 401.103 152.426 401.103H90.5106C88.876 401.103 87.7763 402.418 88.0661 404.026L106.328 505.094C106.617 506.702 108.194 508.02 109.827 508.02H207.906C209.541 508.02 211.074 506.696 211.312 505.081L229.761 380.324C230 378.707 228.859 377.383 227.224 377.383H165.802V377.382Z" fill="#0049AD"/>
<path d="M189.368 334.412L208.188 353.435V474.582H109.627V334.412H189.368Z" fill="white" stroke="#EBEBEB"/>
<path d="M189.578 333.912L208.688 353.23H189.578V333.912Z" fill="#F4F0E1"/>
<path d="M199.526 371.308H118.291V373.644H199.526V371.308Z" fill="#B7E5E5"/>
<path d="M199.526 380.651H118.291V382.987H199.526V380.651Z" fill="#B7E5E5"/>
<path d="M199.526 389.993H118.291V392.329H199.526V389.993Z" fill="#B7E5E5"/>
<path d="M199.526 399.336H118.291V401.672H199.526V399.336Z" fill="#B7E5E5"/>
<path d="M199.526 408.678H118.291V411.014H199.526V408.678Z" fill="#B7E5E5"/>
<path d="M199.526 418.021H118.291V420.357H199.526V418.021Z" fill="#B7E5E5"/>
<path d="M132.019 355.466C132.019 350.877 135.527 347.627 140.309 347.627C143.088 347.627 145.328 348.642 146.793 350.472L144.079 352.926C143.131 351.782 141.969 351.16 140.525 351.16C138.048 351.16 136.325 352.883 136.325 355.466C136.325 358.052 138.048 359.772 140.525 359.772C141.969 359.772 143.131 359.148 144.079 358.004L146.793 360.462C145.329 362.293 143.088 363.303 140.309 363.303C135.529 363.306 132.019 360.055 132.019 355.466Z" fill="#ED6332"/>
<path d="M164.594 363.004L164.551 355.017L160.675 361.518H158.779L154.926 355.233V363.004H150.985V347.929H154.496L159.792 356.63L164.962 347.929H168.471L168.514 363.004H164.594Z" fill="#ED6332"/>
<path d="M172.767 361.649L174.166 358.506C175.501 359.389 177.397 359.992 179.143 359.992C180.908 359.992 181.596 359.496 181.596 358.762C181.596 356.374 173.027 358.114 173.027 352.516C173.027 349.827 175.221 347.629 179.702 347.629C181.662 347.629 183.686 348.082 185.17 348.944L183.858 352.108C182.414 351.334 180.992 350.95 179.681 350.95C177.892 350.95 177.245 351.55 177.245 352.302C177.245 354.607 185.796 352.886 185.796 358.441C185.796 361.068 183.601 363.308 179.121 363.308C176.645 363.306 174.189 362.638 172.767 361.649Z" fill="#ED6332"/>
<path d="M165.802 392.241C164.167 392.241 162.43 393.515 161.941 395.077L156.287 413.127C155.799 414.686 154.062 415.962 152.426 415.962H90.5106C88.876 415.962 87.7763 417.278 88.0661 418.885L106.328 519.954C106.617 521.562 108.194 522.88 109.827 522.88H207.906C209.541 522.88 211.074 521.556 211.312 519.941L229.761 395.184C230 393.567 228.859 392.243 227.224 392.243H165.802V392.241Z" fill="#2B6AC0"/>
<path opacity="0.4" d="M211.313 519.939L229.762 395.182C230.001 393.565 228.86 392.241 227.226 392.241H221.271C211.294 487.102 139.575 510.57 105.681 516.369L106.329 519.953C106.619 521.561 108.195 522.879 109.829 522.879H207.908C209.542 522.88 211.076 521.556 211.313 519.939Z" fill="#0049AD"/>
<path d="M647.105 519.592C647.105 521.162 645.82 522.448 644.249 522.448H465.537C463.968 522.448 462.682 521.162 462.682 519.592V389.779C462.682 388.208 463.968 386.923 465.537 386.923H644.249C645.82 386.923 647.105 388.208 647.105 389.779V519.592Z" fill="#0049AD"/>
<path d="M639.865 504.501C639.865 505.95 638.681 507.133 637.234 507.133H472.554C471.106 507.133 469.922 505.949 469.922 504.501V394.872C469.922 393.426 471.106 392.241 472.554 392.241H637.234C638.681 392.241 639.865 393.426 639.865 394.872V504.501Z" fill="#2B6AC0"/>
<path d="M639.865 514.23C639.865 514.784 639.415 515.235 638.859 515.235H470.928C470.372 515.235 469.922 514.784 469.922 514.23C469.922 513.676 470.372 513.226 470.928 513.226H638.859C639.415 513.226 639.865 513.676 639.865 514.23Z" fill="#2B6AC0"/>
<path d="M582.758 514.23C582.758 514.784 582.307 515.235 581.752 515.235H470.928C470.372 515.235 469.922 514.784 469.922 514.23C469.922 513.676 470.372 513.226 470.928 513.226H581.752C582.307 513.226 582.758 513.676 582.758 514.23Z" fill="#ED6332"/>
<path d="M585.323 514.343C585.323 516.511 583.564 518.271 581.396 518.271C579.228 518.271 577.47 516.511 577.47 514.343C577.47 512.175 579.228 510.416 581.396 510.416C583.564 510.417 585.323 512.175 585.323 514.343Z" fill="#ED6332"/>
<path opacity="0.2" d="M600.103 451.297C600.103 476.266 579.862 496.51 554.893 496.51C529.924 496.51 509.681 476.266 509.681 451.297C509.681 426.327 529.924 406.087 554.893 406.087C579.862 406.087 600.103 426.327 600.103 451.297Z" fill="#48CAD9"/>
<path d="M590.227 451.297C590.227 470.812 574.407 486.632 554.893 486.632C535.379 486.632 519.559 470.812 519.559 451.297C519.559 431.784 535.38 415.964 554.893 415.964C574.409 415.963 590.227 431.784 590.227 451.297Z" fill="#48CAD9"/>
<path d="M547.912 436.486V466.109L567.213 451.607L547.912 436.486Z" fill="#2B6AC0"/>
<path opacity="0.2" d="M644.249 522.448C645.82 522.448 647.105 521.162 647.105 519.592V389.779C647.105 388.208 645.82 386.923 644.249 386.923H627.506C627.52 476.817 581.167 510.723 556.239 522.448H644.249Z" fill="#0049AD"/>
<path d="M513.328 226.24C513.328 227.043 512.671 227.7 511.867 227.7H332.094C331.29 227.7 330.635 227.043 330.635 226.24V107.921C330.635 107.118 331.29 106.461 332.094 106.461H511.867C512.67 106.461 513.328 107.118 513.328 107.921V226.24Z" fill="white"/>
<path d="M506.677 219.278C506.677 220.011 506.079 220.61 505.344 220.61H338.616C337.885 220.61 337.285 220.011 337.285 219.278V114.882C337.285 114.151 337.885 113.551 338.616 113.551H505.344C506.078 113.551 506.677 114.151 506.677 114.882V219.278Z" fill="#2B6AC0"/>
<path d="M469.779 150.171C465.916 145.698 459.591 145.698 455.725 150.171L408.006 205.373C404.141 209.841 397.817 209.841 393.953 205.373L372.249 180.262C368.387 175.792 362.062 175.792 358.196 180.262L337.285 204.453V220.684C337.285 221.417 337.885 222.016 338.616 222.016H505.344C506.078 222.016 506.677 221.417 506.677 220.684V192.853L469.779 150.171Z" fill="#48CAD9"/>
<path d="M414.456 145.546C414.456 155.253 406.586 163.123 396.879 163.123C387.171 163.123 379.301 155.253 379.301 145.546C379.301 135.838 387.171 127.968 396.879 127.968C406.586 127.968 414.456 135.838 414.456 145.546Z" fill="#48CAD9"/>
<path opacity="0.1" d="M511.869 227.701C512.671 227.701 513.33 227.044 513.33 226.242V107.922C513.33 107.12 512.673 106.463 511.869 106.463H490.56C486.708 177.514 457.863 211.526 433.179 227.703L511.869 227.701Z" fill="#0049AD"/>
<path d="M356.973 342.104C356.973 342.975 356.259 343.688 355.389 343.688H234.354C233.483 343.688 232.771 342.975 232.771 342.104V255.726C232.771 254.855 233.483 254.143 234.354 254.143H355.389C356.259 254.143 356.973 254.856 356.973 255.726V342.104Z" fill="#0049AD"/>
<path d="M356.973 265.021V255.726C356.973 254.855 356.259 254.143 355.389 254.143H234.354C233.483 254.143 232.771 254.856 232.771 255.726V265.021H356.973Z" fill="#2B6AC0"/>
<path d="M251.519 259.582C251.519 260.842 250.499 261.864 249.239 261.864C247.976 261.864 246.957 260.84 246.957 259.582C246.957 258.32 247.977 257.299 249.239 257.299C250.498 257.299 251.519 258.32 251.519 259.582Z" fill="white"/>
<path d="M242.023 259.582C242.023 260.842 241.001 261.864 239.742 261.864C238.48 261.864 237.458 260.84 237.458 259.582C237.458 258.32 238.482 257.299 239.742 257.299C241.001 257.299 242.023 258.32 242.023 259.582Z" fill="white"/>
<path d="M261.016 259.582C261.016 260.842 259.993 261.864 258.735 261.864C257.473 261.864 256.451 260.84 256.451 259.582C256.451 258.32 257.475 257.299 258.735 257.299C259.993 257.299 261.016 258.32 261.016 259.582Z" fill="white"/>
<path d="M348.097 286.731H267.957V289.95H348.097V286.731Z" fill="white"/>
<path d="M265.407 276.328H241.644V279.546H265.407V276.328Z" fill="#76E0E5"/>
<path d="M254.219 297.133H241.644V300.352H254.219V297.133Z" fill="#76E0E5"/>
<path d="M265.407 307.535H241.644V310.754H265.407V307.535Z" fill="#76E0E5"/>
<path d="M260.127 317.937H241.644V321.156H260.127V317.937Z" fill="#76E0E5"/>
<path d="M325.135 276.328H278.99V279.546H325.135V276.328Z" fill="white"/>
<path d="M260.127 286.731H241.644V289.95H260.127V286.731Z" fill="#76E0E5"/>
<path d="M314.069 297.133H259.546V300.352H314.069V297.133Z" fill="white"/>
<path d="M325.135 307.535H278.99V310.754H325.135V307.535Z" fill="white"/>
<path d="M348.097 317.937H267.957V321.156H348.097V317.937Z" fill="white"/>
<path d="M254.219 328.339H241.644V331.558H254.219V328.339Z" fill="#76E0E5"/>
<path d="M314.069 328.339H259.546V331.558H314.069V328.339Z" fill="white"/>
<path opacity="0.4" d="M356.973 255.726C356.973 254.855 356.259 254.143 355.388 254.143H325.685C324.969 309.523 287.038 334.929 269.611 343.689H355.39C356.261 343.689 356.974 342.976 356.974 342.105V255.726H356.973Z" fill="#0049AD"/>
<path d="M551.432 266.123C551.432 266.994 550.719 267.707 549.848 267.707H443.673C442.803 267.707 442.091 266.994 442.091 266.123V209.466C442.091 208.596 442.803 207.884 443.673 207.884H549.848C550.719 207.884 551.432 208.597 551.432 209.466V266.123Z" fill="#0049AD"/>
<path d="M551.432 218.761V209.466C551.432 208.596 550.719 207.884 549.848 207.884H443.673C442.803 207.884 442.091 208.597 442.091 209.466V218.761H551.432Z" fill="#2B6AC0"/>
<path d="M460.838 213.323C460.838 214.583 459.819 215.605 458.559 215.605C457.296 215.605 456.275 214.581 456.275 213.323C456.275 212.061 457.297 211.04 458.559 211.04C459.819 211.04 460.838 212.061 460.838 213.323Z" fill="white"/>
<path d="M451.343 213.323C451.343 214.583 450.319 215.605 449.062 215.605C447.798 215.605 446.778 214.581 446.778 213.323C446.778 212.061 447.8 211.04 449.062 211.04C450.32 211.04 451.343 212.061 451.343 213.323Z" fill="white"/>
<path d="M470.337 213.323C470.337 214.583 469.313 215.605 468.056 215.605C466.793 215.605 465.772 214.581 465.772 213.323C465.772 212.061 466.794 211.04 468.056 211.04C469.313 211.04 470.337 212.061 470.337 213.323Z" fill="white"/>
<path d="M499.321 230.504C496.833 238.039 494.344 245.578 491.857 253.112C491.362 254.605 493.713 255.243 494.202 253.757C496.692 246.223 499.183 238.687 501.669 231.152C502.161 229.657 499.811 229.024 499.321 230.504Z" fill="#76E0E5"/>
<path d="M490.323 246.379C488.265 244.963 486.206 243.546 484.145 242.132C486.206 240.717 488.265 239.302 490.323 237.885C491.61 237.001 490.395 234.892 489.095 235.782C486.527 237.547 483.956 239.316 481.387 241.08C480.606 241.616 480.606 242.646 481.387 243.184C483.956 244.948 486.527 246.715 489.095 248.483C490.395 249.372 491.61 247.264 490.323 246.379Z" fill="#76E0E5"/>
<path d="M503.201 246.379C505.256 244.963 507.316 243.546 509.374 242.132C507.314 240.717 505.255 239.302 503.201 237.885C501.917 237.001 503.133 234.892 504.427 235.782C506.996 237.547 509.564 239.316 512.132 241.08C512.915 241.616 512.915 242.646 512.132 243.184C509.564 244.948 506.998 246.715 504.427 248.483C503.133 249.372 501.917 247.264 503.201 246.379Z" fill="#76E0E5"/>
<path opacity="0.4" d="M549.848 267.709C550.719 267.709 551.432 266.995 551.432 266.125V209.468C551.432 208.597 550.719 207.885 549.848 207.885H526.08C524.28 243.046 504.212 259.827 487.705 267.71H549.848V267.709Z" fill="#0049AD"/>
<path d="M497.367 315.966C512.445 298.228 539.143 296.061 556.878 311.138C573.991 325.678 576.562 351.01 563.194 368.708L562.909 369.084L563.269 369.39L584.374 387.327L584.755 387.65L585.079 387.268L587.544 384.365L607.625 401.432L599.5 410.996L579.418 393.927L581.88 391.034L582.205 390.653L581.823 390.328L560.719 372.393L560.36 372.087L560.034 372.429C544.723 388.475 519.311 390.023 502.2 375.48C484.46 360.406 482.293 333.705 497.367 315.966ZM553.267 315.391C537.871 302.312 514.706 304.193 501.625 319.586C488.543 334.975 490.423 358.144 505.817 371.222C521.209 384.306 544.373 382.425 557.457 367.033C570.539 351.639 568.657 328.473 553.268 315.391L553.267 315.391Z" fill="white" stroke="#EBEBEB"/>
<path d="M525.833 318.139C521.795 319.826 519.889 324.464 521.577 328.501C523.262 332.542 527.901 334.448 531.939 332.762C535.979 331.075 537.886 326.434 536.199 322.397C534.514 318.361 529.873 316.453 525.833 318.139Z" fill="white"/>
<path d="M668.114 194.035H662.2C661.482 189.085 659.54 184.541 656.68 180.708L660.863 176.527C661.441 175.949 661.441 175.003 660.863 174.425L656.94 170.501C656.36 169.923 655.417 169.923 654.837 170.501L650.655 174.682C646.823 171.823 642.28 169.883 637.329 169.165V163.248C637.329 162.432 636.66 161.762 635.843 161.762H630.296C629.478 161.762 628.81 162.432 628.81 163.248V169.165C623.86 169.883 619.317 171.823 615.483 174.684L611.302 170.501C610.722 169.923 609.779 169.923 609.2 170.501L605.276 174.425C604.698 175.003 604.698 175.947 605.276 176.527L609.461 180.708C606.602 184.542 604.661 189.085 603.942 194.035H598.026C597.207 194.035 596.54 194.703 596.54 195.521V201.068C596.54 201.885 597.207 202.554 598.026 202.554H603.942C604.659 207.504 606.6 212.046 609.461 215.88L605.276 220.062C604.698 220.641 604.698 221.585 605.276 222.163L609.2 226.088C609.779 226.666 610.722 226.666 611.302 226.086L615.483 221.905C619.316 224.765 623.858 226.704 628.81 227.425V233.339C628.81 234.158 629.478 234.825 630.296 234.825H635.843C636.66 234.825 637.329 234.158 637.329 233.339V227.425C642.28 226.707 646.823 224.765 650.657 221.906L654.837 226.086C655.417 226.666 656.36 226.666 656.938 226.088L660.861 222.163C661.441 221.585 661.441 220.641 660.861 220.062L656.68 215.882C659.539 212.048 661.479 207.505 662.199 202.554H668.113C668.932 202.554 669.599 201.885 669.599 201.068V195.521C669.6 194.703 668.933 194.035 668.114 194.035ZM633.07 219.842C621.17 219.842 611.523 210.195 611.523 198.295C611.523 186.394 621.17 176.747 633.07 176.747C644.972 176.747 654.617 186.394 654.617 198.295C654.617 210.195 644.972 219.842 633.07 219.842Z" fill="#ED6332"/>
<path d="M608.789 136.803H604.099C603.53 132.877 601.99 129.276 599.723 126.237L603.04 122.921C603.499 122.463 603.499 121.712 603.04 121.255L599.929 118.145C599.47 117.685 598.72 117.685 598.262 118.145L594.947 121.46C591.908 119.194 588.306 117.653 584.381 117.085V112.394C584.381 111.746 583.851 111.215 583.203 111.215H578.803C578.155 111.215 577.626 111.746 577.626 112.394V117.085C573.7 117.656 570.099 119.194 567.059 121.461L563.744 118.145C563.285 117.685 562.536 117.687 562.078 118.145L558.966 121.256C558.507 121.714 558.507 122.463 558.966 122.922L562.283 126.237C560.017 129.278 558.477 132.878 557.908 136.803H553.217C552.569 136.803 552.039 137.333 552.039 137.981V142.38C552.039 143.028 552.569 143.558 553.217 143.558H557.908C558.477 147.483 560.015 151.083 562.283 154.124L558.966 157.439C558.507 157.898 558.507 158.648 558.966 159.105L562.078 162.216C562.537 162.676 563.286 162.676 563.744 162.216L567.059 158.9C570.098 161.169 573.7 162.708 577.626 163.276V167.966C577.626 168.617 578.156 169.144 578.803 169.144H583.203C583.849 169.144 584.381 168.617 584.381 167.966V163.276C588.307 162.707 591.909 161.169 594.948 158.903L598.262 162.216C598.721 162.676 599.47 162.676 599.928 162.216L603.038 159.105C603.499 158.647 603.499 157.897 603.038 157.439L599.724 154.125C601.99 151.085 603.531 147.484 604.099 143.558H608.789C609.437 143.558 609.967 143.029 609.967 142.38V137.981C609.967 137.333 609.437 136.803 608.789 136.803ZM581.001 151.89C574.532 151.89 569.29 146.648 569.29 140.182C569.29 133.712 574.532 128.471 581.001 128.471C587.468 128.471 592.712 133.712 592.712 140.182C592.712 146.648 587.469 151.89 581.001 151.89Z" fill="#ED6332"/>
<path d="M275.328 519.109C275.409 522.617 272.605 525.485 269.098 525.485H265.97C262.463 525.485 259.659 522.617 259.741 519.109L261.997 422.159C262.078 418.654 264.569 415.783 267.535 415.783C270.5 415.783 272.993 418.654 273.075 422.159L275.328 519.109Z" fill="#ED6332"/>
<path d="M265.97 525.485H269.098C270.225 525.485 271.263 525.166 272.173 524.647L271.104 478.715C271.052 476.455 269.445 474.602 267.534 474.602C265.623 474.602 264.016 476.453 263.963 478.715L262.894 524.647C263.804 525.167 264.844 525.485 265.97 525.485Z" fill="#DB3E0E"/>
<path d="M280.649 381.315V399.19L267.534 412.132L254.418 399.19V381.318C245.285 386.063 239.045 395.6 239.045 406.604C239.045 422.338 251.8 435.094 267.534 435.094C283.267 435.094 296.023 422.338 296.023 406.604C296.023 395.6 289.782 386.063 280.649 381.315Z" fill="#ED6332"/>
<path d="M267.533 429.567C257.038 429.567 247.631 424.92 241.242 417.583C245.541 427.866 255.693 435.092 267.533 435.092C279.375 435.092 289.529 427.866 293.827 417.583C287.435 424.92 278.031 429.567 267.533 429.567Z" fill="#DB3E0E"/>
<path d="M295.337 182.43C295.337 184.67 293.504 186.502 291.265 186.502H176.278C174.039 186.502 172.207 184.67 172.207 182.43V122.002C172.207 119.763 174.039 117.93 176.278 117.93H291.265C293.504 117.93 295.337 119.763 295.337 122.002V182.43Z" fill="#ED6332"/>
<path d="M291.265 117.93H176.278C175.704 117.93 175.161 118.054 174.666 118.271L229.998 158.367C232.073 159.873 235.47 159.873 237.543 158.367L292.876 118.271C292.382 118.054 291.838 117.93 291.265 117.93Z" fill="#DB3E0E"/>
<path opacity="0.1" d="M291.265 117.93H270.522C265.419 160.553 232.025 178.776 206.768 186.502H291.265C293.504 186.502 295.336 184.67 295.336 182.43V122.002C295.336 119.763 293.504 117.93 291.265 117.93Z" fill="#0049AD"/>
<path d="M236.7 61.7612C225.655 84.549 200.95 89.6133 200.95 89.6133C205.696 130.128 236.7 138.567 236.7 138.567C236.7 138.567 267.701 130.126 272.449 89.6133C272.449 89.6133 247.744 84.549 236.7 61.7612Z" fill="#48CAD9"/>
<path d="M236.7 79.8354C229.969 93.7251 214.913 96.81 214.913 96.81C217.804 121.501 236.7 126.646 236.7 126.646C236.7 126.646 255.593 121.501 258.488 96.81C258.488 96.81 243.43 93.7251 236.7 79.8354Z" fill="#76E0E5"/>
<path d="M246.2 96.8263C242.925 100.886 239.651 104.944 236.376 109.003C234.274 107.408 232.174 105.814 230.073 104.216C228.095 102.715 226.182 106.057 228.131 107.536C230.663 109.459 233.198 111.382 235.73 113.305C236.357 113.78 237.57 113.612 238.058 113.004C241.678 108.517 245.298 104.032 248.92 99.5442C250.461 97.6346 247.759 94.896 246.2 96.8263Z" fill="#0049AD"/>
<path opacity="0.1" d="M216.188 125.004C225.985 135.641 236.7 138.568 236.7 138.568C236.7 138.568 267.701 130.128 272.449 89.6147C272.449 89.6147 264.784 88.0307 256.085 82.7048C249.095 107.855 228.566 119.898 216.188 125.004Z" fill="#0049AD"/>
<path d="M105.084 225.372C118.097 225.372 129.021 234.313 132.042 246.396L132.172 246.915L132.681 246.751C134.624 246.123 136.691 245.787 138.841 245.787C150.022 245.787 159.087 254.852 159.087 266.031C159.087 277.214 150.022 286.274 138.841 286.274H73.9475C65.7848 286.274 59.1674 279.658 59.1672 271.494C59.1672 263.336 65.7847 256.716 73.9475 256.716C74.9563 256.716 75.9448 256.815 76.8938 257.012L77.5735 257.152L77.4924 256.464C77.3637 255.38 77.2903 254.283 77.2903 253.164C77.2903 237.809 89.7335 225.372 105.084 225.372Z" fill="white" stroke="#EBEBEB"/>
<path opacity="0.2" d="M149.425 248.214C150.729 250.928 151.481 253.959 151.481 257.172C151.481 268.629 142.191 277.91 130.735 277.91H65.8417C63.5919 277.91 61.4625 277.414 59.5381 276.54C61.6244 282.496 67.2816 286.774 73.9478 286.774H138.841C150.299 286.774 159.587 277.49 159.587 266.031C159.587 258.447 155.502 251.831 149.425 248.214Z" fill="#0049AD"/>
<path d="M125.106 260.142L118.652 251.91L112.2 260.142H116.126V266.635H121.177V260.142H125.106Z" fill="#48CAD9"/>
<path d="M90.1748 259.683L96.6285 267.917L103.084 259.683H99.1562V253.191H94.1053V259.683H90.1748Z" fill="#48CAD9"/>
<path d="M483.51 68.5054C495.768 68.5055 506.058 76.9255 508.904 88.3091L509.033 88.8276L509.542 88.6646C511.373 88.0754 513.319 87.7563 515.344 87.7563C525.871 87.7565 534.408 96.2929 534.408 106.82C534.408 117.347 525.872 125.878 515.344 125.878H454.148C446.465 125.878 440.237 119.654 440.237 111.973C440.237 104.293 446.464 98.0621 454.148 98.062C455.098 98.062 456.025 98.1554 456.919 98.3413L457.599 98.4829L457.517 97.7925C457.396 96.7717 457.329 95.7395 457.329 94.6851C457.329 80.2202 469.05 68.5054 483.51 68.5054Z" fill="white" stroke="#EBEBEB"/>
<path opacity="0.2" d="M525.325 90.0176C526.552 92.578 527.263 95.4341 527.263 98.467C527.263 109.27 518.501 118.024 507.699 118.024H446.504C444.381 118.024 442.375 117.556 440.559 116.731C442.526 122.347 447.861 126.38 454.15 126.38H515.345C526.149 126.38 534.909 117.624 534.909 106.821C534.908 99.6662 531.056 93.4279 525.325 90.0176Z" fill="#0049AD"/>
<path d="M493.413 98.2529L485.535 88.2061L477.66 98.2529H482.453V106.178H488.616V98.2529H493.413Z" fill="#48CAD9"/>
<path d="M631.061 281.342C639.524 281.342 646.628 287.158 648.594 295.017L648.723 295.536L649.232 295.372C650.493 294.965 651.83 294.745 653.224 294.745C660.469 294.745 666.345 300.619 666.345 307.865C666.345 315.111 660.47 320.983 653.224 320.983H610.618C605.353 320.983 601.085 316.716 601.085 311.453C601.085 306.19 605.353 301.92 610.618 301.919C611.267 301.919 611.904 301.985 612.517 302.112L613.197 302.252L613.115 301.563C613.031 300.859 612.985 300.145 612.985 299.417C612.985 289.431 621.078 281.342 631.061 281.342Z" fill="white" stroke="#EBEBEB"/>
<path opacity="0.2" d="M660.173 296.166C661.029 297.948 661.523 299.939 661.523 302.049C661.523 309.573 655.424 315.667 647.902 315.667H605.295C603.818 315.667 602.42 315.338 601.157 314.765C602.527 318.677 606.24 321.484 610.618 321.484H653.225C660.747 321.484 666.845 315.389 666.845 307.867C666.845 302.886 664.163 298.544 660.173 296.166Z" fill="#0049AD"/>
<path d="M626.218 300.38L632.029 307.79L637.836 300.38H634.302V294.537H629.756V300.38H626.218Z" fill="#48CAD9"/>
<path d="M122.602 133.569H121.116V142.186H122.602V133.569Z" fill="#D8B560"/>
<path d="M122.602 151.446H121.116V160.061H122.602V151.446Z" fill="#D8B560"/>
<path d="M135.105 146.072H126.488V147.558H135.105V146.072Z" fill="#D8B560"/>
<path d="M117.23 146.072H108.613V147.558H117.23V146.072Z" fill="#D8B560"/>
<path d="M130.697 136.923L124.605 143.016L125.656 144.066L131.748 137.974L130.697 136.923Z" fill="#D8B560"/>
<path d="M118.057 149.563L111.965 155.655L113.016 156.706L119.108 150.614L118.057 149.563Z" fill="#D8B560"/>
<path d="M125.654 149.566L124.603 150.617L130.697 156.71L131.747 155.659L125.654 149.566Z" fill="#D8B560"/>
<path d="M113.01 136.938L111.959 137.989L118.052 144.081L119.102 143.031L113.01 136.938Z" fill="#D8B560"/>
<path d="M158.997 87.1941H158.086V92.4798H158.997V87.1941Z" fill="#D8B560"/>
<path d="M158.997 98.1592H158.086V103.446H158.997V98.1592Z" fill="#D8B560"/>
<path d="M166.668 94.8633H161.383V95.7742H166.668V94.8633Z" fill="#D8B560"/>
<path d="M155.701 94.8633H150.416V95.7742H155.701V94.8633Z" fill="#D8B560"/>
<path d="M163.962 89.2475L160.229 92.9897L160.875 93.6341L164.608 89.8918L163.962 89.2475Z" fill="#D8B560"/>
<path d="M156.209 97.0063L152.471 100.745L153.116 101.39L156.854 97.6515L156.209 97.0063Z" fill="#D8B560"/>
<path d="M160.87 96.9952L160.226 97.6394L163.965 101.377L164.609 100.733L160.87 96.9952Z" fill="#D8B560"/>
<path d="M153.117 89.2464L152.471 89.8916L156.209 93.6286L156.855 92.9833L153.117 89.2464Z" fill="#D8B560"/>
<path d="M671.829 244.335H670.343V252.951H671.829V244.335Z" fill="#D8B560"/>
<path d="M671.829 262.21H670.343V270.826H671.829V262.21Z" fill="#D8B560"/>
<path d="M684.334 256.839H675.717V258.325H684.334V256.839Z" fill="#D8B560"/>
<path d="M666.457 256.839H657.84V258.325H666.457V256.839Z" fill="#D8B560"/>
<path d="M679.921 247.692L673.828 253.785L674.879 254.836L680.972 248.743L679.921 247.692Z" fill="#D8B560"/>
<path d="M667.332 260.317L661.239 266.411L662.289 267.462L668.383 261.367L667.332 260.317Z" fill="#D8B560"/>
<path d="M674.87 260.308L673.82 261.359L679.915 267.453L680.965 266.402L674.87 260.308Z" fill="#D8B560"/>
<path d="M662.24 247.7L661.19 248.751L667.283 254.844L668.334 253.793L662.24 247.7Z" fill="#D8B560"/>
<path d="M644.441 342.914H643.531V348.2H644.441V342.914Z" fill="#D8B560"/>
<path d="M644.441 353.879H643.531V359.165H644.441V353.879Z" fill="#D8B560"/>
<path d="M652.112 350.582H646.824V351.492H652.112V350.582Z" fill="#D8B560"/>
<path d="M641.145 350.582H635.859V351.492H641.145V350.582Z" fill="#D8B560"/>
<path d="M649.404 344.986L645.671 348.728L646.317 349.372L650.05 345.63L649.404 344.986Z" fill="#D8B560"/>
<path d="M638.561 357.11L637.916 356.462L641.653 352.724L642.299 353.368L638.561 357.11Z" fill="#D8B560"/>
<path d="M646.301 352.679L645.656 353.324L649.395 357.064L650.04 356.419L646.301 352.679Z" fill="#D8B560"/>
<path d="M638.559 345L637.914 345.646L641.651 349.382L642.296 348.736L638.559 345Z" fill="#D8B560"/>
<path d="M337.893 25.0791H335.885V36.7204H337.893V25.0791Z" fill="#D8B560"/>
<path d="M337.893 49.2295H335.885V60.8693H337.893V49.2295Z" fill="#D8B560"/>
<path d="M354.785 41.9719H343.144V43.981H354.785V41.9719Z" fill="#D8B560"/>
<path d="M330.635 41.9719H318.994V43.981H330.635V41.9719Z" fill="#D8B560"/>
<path d="M348.83 29.613L340.599 37.8435L342.019 39.2631L350.249 31.0325L348.83 29.613Z" fill="#D8B560"/>
<path d="M331.754 46.6896L323.523 54.9211L324.942 56.3407L333.174 48.1091L331.754 46.6896Z" fill="#D8B560"/>
<path d="M342.008 46.6667L340.589 48.0864L348.823 56.3179L350.242 54.8981L342.008 46.6667Z" fill="#D8B560"/>
<path d="M324.942 29.6117L323.523 31.0312L331.753 39.2618L333.173 37.8422L324.942 29.6117Z" fill="#D8B560"/>
<path d="M644.896 119.842H643.986V125.129H644.896V119.842Z" fill="#D8B560"/>
<path d="M644.896 130.808H643.986V136.094H644.896V130.808Z" fill="#D8B560"/>
<path d="M652.568 127.512H647.281V128.423H652.568V127.512Z" fill="#D8B560"/>
<path d="M641.601 127.512H636.315V128.423H641.601V127.512Z" fill="#D8B560"/>
<path d="M649.872 121.928L646.137 125.67L646.783 126.315L650.517 122.573L649.872 121.928Z" fill="#D8B560"/>
<path d="M639.015 134.037L638.372 133.391L642.108 129.654L642.755 130.297L639.015 134.037Z" fill="#D8B560"/>
<path d="M646.763 129.657L646.12 130.3L649.86 134.039L650.503 133.396L646.763 129.657Z" fill="#D8B560"/>
<path d="M638.993 121.866L638.348 122.511L642.086 126.25L642.731 125.605L638.993 121.866Z" fill="#D8B560"/>
<path d="M563.283 55.9761H561.797V64.5934H563.283V55.9761Z" fill="#D8B560"/>
<path d="M563.283 73.8542H561.797V82.4701H563.283V73.8542Z" fill="#D8B560"/>
<path d="M575.786 68.4792H567.169V69.9652H575.786V68.4792Z" fill="#D8B560"/>
<path d="M557.91 68.4792H549.292V69.9652H557.91V68.4792Z" fill="#D8B560"/>
<path d="M571.376 59.3347L565.284 65.427L566.335 66.4778L572.427 60.3855L571.376 59.3347Z" fill="#D8B560"/>
<path d="M558.772 71.9544L552.679 78.0486L553.73 79.0993L559.823 73.0052L558.772 71.9544Z" fill="#D8B560"/>
<path d="M566.327 71.9633L565.277 73.0142L571.372 79.1077L572.422 78.0568L566.327 71.9633Z" fill="#D8B560"/>
<path d="M553.687 59.3241L552.636 60.375L558.729 66.4664L559.78 65.4155L553.687 59.3241Z" fill="#D8B560"/>
<path d="M70.5789 196.278H69.6694V201.566H70.5789V196.278Z" fill="#D8B560"/>
<path d="M70.5789 207.245H69.6694V212.531H70.5789V207.245Z" fill="#D8B560"/>
<path d="M78.2511 203.949H72.9639V204.86H78.2511V203.949Z" fill="#D8B560"/>
<path d="M67.2845 203.949H61.9988V204.86H67.2845V203.949Z" fill="#D8B560"/>
<path d="M75.5417 198.339L71.8074 202.082L72.4533 202.726L76.1876 198.983L75.5417 198.339Z" fill="#D8B560"/>
<path d="M64.7003 210.474L64.0554 209.828L67.7927 206.092L68.4391 206.735L64.7003 210.474Z" fill="#D8B560"/>
<path d="M72.4507 206.091L71.8076 206.734L75.5472 210.473L76.1903 209.83L72.4507 206.091Z" fill="#D8B560"/>
<path d="M64.708 198.319L64.0627 198.964L67.8008 202.703L68.446 202.058L64.708 198.319Z" fill="#D8B560"/>
<path d="M119.774 57.4028C119.774 59.0701 118.424 60.4194 116.758 60.4194C115.09 60.4194 113.741 59.0701 113.741 57.4028C113.741 55.737 115.09 54.3877 116.758 54.3877C118.424 54.3877 119.774 55.737 119.774 57.4028Z" fill="#D8B560"/>
<path d="M193.018 3.94236C193.018 6.12084 191.253 7.88472 189.077 7.88472C186.897 7.88472 185.133 6.11935 185.133 3.94236C185.133 1.76388 186.899 9.37443e-07 189.077 9.37443e-07C191.253 -0.00148506 193.018 1.76388 193.018 3.94236Z" fill="#D8B560"/>
<path d="M679.659 373.644C679.659 375.821 677.894 377.585 675.718 377.585C673.538 377.585 671.774 375.82 671.774 373.644C671.774 371.467 673.54 369.7 675.718 369.7C677.895 369.699 679.659 371.467 679.659 373.644Z" fill="#D8B560"/>
<path d="M612.984 79.8354C612.984 81.5012 611.635 82.8505 609.969 82.8505C608.301 82.8505 606.952 81.5012 606.952 79.8354C606.952 78.1696 608.301 76.8188 609.969 76.8188C611.635 76.8188 612.984 78.1696 612.984 79.8354Z" fill="#D8B560"/>
<path d="M382.318 81.5815C382.318 83.2488 380.969 84.5981 379.303 84.5981C377.636 84.5981 376.286 83.2488 376.286 81.5815C376.286 79.9157 377.636 78.5664 379.303 78.5664C380.969 78.5664 382.318 79.9157 382.318 81.5815Z" fill="#D8B560"/>
<path d="M478.114 15.3965C478.114 17.5749 476.349 19.3388 474.174 19.3388C471.994 19.3388 470.23 17.5735 470.23 15.3965C470.23 13.2195 471.995 11.4541 474.174 11.4541C476.351 11.4526 478.114 13.2195 478.114 15.3965Z" fill="#D8B560"/>
<path d="M77.945 342.914C77.945 345.091 76.1796 346.855 74.0041 346.855C71.8242 346.855 70.0603 345.089 70.0603 342.914C70.0603 340.737 71.8257 338.97 74.0041 338.97C76.1811 338.97 77.945 340.737 77.945 342.914Z" fill="#D8B560"/>
<path d="M265.911 46.6872C265.911 48.3545 264.561 49.7038 262.895 49.7038C261.228 49.7038 259.879 48.3545 259.879 46.6872C259.879 45.0214 261.228 43.6721 262.895 43.6721C264.561 43.6721 265.911 45.0214 265.911 46.6872Z" fill="#D8B560"/>
</svg>
