<svg width="200" height="200" viewBox="0 0 200 200" fill="none" xmlns="http://www.w3.org/2000/svg">
<rect x="53.6001" y="25" width="53" height="15" fill="#38D4FF"/>
<path fill-rule="evenodd" clip-rule="evenodd" d="M134.033 72.1458L117.154 124.093C116.901 124.837 116.795 125.626 116.842 126.412C116.889 127.199 117.088 127.968 117.428 128.676C117.767 129.383 118.24 130.014 118.819 130.532C119.398 131.051 120.072 131.446 120.801 131.695C121.531 131.944 122.301 132.042 123.068 131.984C123.834 131.925 124.582 131.711 125.267 131.353C125.952 130.996 126.562 130.503 127.059 129.902C127.557 129.301 127.934 128.605 128.167 127.854L145.047 75.9073C145.299 75.1629 145.405 74.3744 145.358 73.5876C145.311 72.8008 145.112 72.0315 144.773 71.3242C144.433 70.617 143.96 69.9859 143.381 69.4676C142.802 68.9493 142.128 68.5541 141.399 68.305C140.669 68.0559 139.899 67.9579 139.132 68.0165C138.366 68.0751 137.618 68.2893 136.933 68.6467C136.248 69.004 135.639 69.4973 135.141 70.098C134.643 70.6987 134.267 71.3947 134.033 72.1458ZM148.808 86.8982L161.586 100L148.808 113.102C148.269 113.655 147.841 114.311 147.549 115.033C147.257 115.756 147.107 116.53 147.107 117.312C147.107 118.094 147.257 118.868 147.549 119.59C147.841 120.312 148.269 120.969 148.808 121.522C149.347 122.074 149.987 122.513 150.692 122.812C151.396 123.111 152.151 123.265 152.914 123.265C153.676 123.265 154.431 123.111 155.136 122.812C155.84 122.513 156.48 122.074 157.02 121.522L173.899 104.206C174.438 103.654 174.866 102.998 175.158 102.277C175.45 101.555 175.6 100.781 175.6 100C175.6 99.2187 175.45 98.4451 175.158 97.7234C174.866 97.0018 174.438 96.3461 173.899 95.7941L157.02 78.4785C156.48 77.9256 155.84 77.4871 155.136 77.1879C154.431 76.8887 153.676 76.7347 152.914 76.7347C152.151 76.7347 151.396 76.8887 150.692 77.1879C149.987 77.4871 149.347 77.9256 148.808 78.4785C148.269 79.0313 147.841 79.6877 147.549 80.41C147.257 81.1323 147.107 81.9065 147.107 82.6883C147.107 83.4702 147.257 84.2444 147.549 84.9667C147.841 85.689 148.269 86.3454 148.808 86.8982ZM105.181 78.4785L88.3009 95.7941C87.7617 96.3461 87.334 97.0018 87.0421 97.7234C86.7503 98.4451 86.6001 99.2187 86.6001 100C86.6001 100.781 86.7503 101.555 87.0421 102.277C87.334 102.998 87.7617 103.654 88.3009 104.206L105.181 121.522C105.72 122.074 106.36 122.513 107.064 122.812C107.769 123.111 108.524 123.265 109.286 123.265C110.049 123.265 110.804 123.111 111.508 122.812C112.213 122.513 112.853 122.074 113.392 121.522C113.931 120.969 114.359 120.312 114.651 119.59C114.943 118.868 115.093 118.094 115.093 117.312C115.093 116.53 114.943 115.756 114.651 115.033C114.359 114.311 113.931 113.655 113.392 113.102L100.614 100L113.392 86.8982C113.931 86.3454 114.359 85.689 114.651 84.9667C114.943 84.2444 115.093 83.4702 115.093 82.6883C115.093 81.9065 114.943 81.1323 114.651 80.41C114.359 79.6877 113.931 79.0313 113.392 78.4785C112.853 77.9256 112.213 77.4871 111.508 77.1879C110.804 76.8887 110.049 76.7347 109.286 76.7347C108.524 76.7347 107.769 76.8887 107.064 77.1879C106.36 77.4871 105.72 77.9256 105.181 78.4785Z" fill="#38D4FF"/>
<path fill-rule="evenodd" clip-rule="evenodd" d="M136.6 57.5349V38.2326C136.6 32.604 134.36 27.1993 130.382 23.2153C126.395 19.2375 120.992 17.0024 115.359 17H45.8415C40.2106 17 34.8037 19.2391 30.818 23.2153C26.8385 27.2011 24.6025 32.6015 24.6001 38.2326V161.767C24.6001 167.396 26.8401 172.801 30.818 176.785C34.8054 180.762 40.208 182.998 45.8415 183H115.359C120.99 183 126.397 180.761 130.382 176.785C134.362 172.799 136.598 167.399 136.6 161.767V142.465C136.6 140.929 135.99 139.456 134.903 138.37C133.817 137.285 132.343 136.674 130.807 136.674C129.271 136.674 127.797 137.285 126.711 138.37C125.624 139.456 125.014 140.929 125.014 142.465V161.767C125.01 164.326 123.991 166.778 122.181 168.587C120.372 170.396 117.918 171.415 115.359 171.419H45.8415C43.282 171.415 40.8286 170.396 39.0188 168.587C37.2089 166.778 36.1904 164.326 36.1863 161.767V38.2326C36.1904 35.6742 37.2089 33.2217 39.0188 31.4127C40.8286 29.6036 43.282 28.5855 45.8415 28.5814H115.359C117.918 28.5855 120.372 29.6036 122.181 31.4127C123.991 33.2217 125.01 35.6742 125.014 38.2326V57.5349C125.014 59.0707 125.624 60.5436 126.711 61.6295C127.797 62.7155 129.271 63.3256 130.807 63.3256C132.343 63.3256 133.817 62.7155 134.903 61.6295C135.99 60.5436 136.6 59.0707 136.6 57.5349Z" fill="#002548"/>
<path fill-rule="evenodd" clip-rule="evenodd" d="M44.0653 25.067L48.9045 37.1041C50.2065 40.3313 52.4511 43.0972 55.349 45.0455C58.247 46.9938 61.6657 48.0352 65.1646 48.0357H96.0356C103.193 48.0357 109.635 43.7063 112.296 37.1041L117.135 25.067C117.439 24.357 117.597 23.5938 117.6 22.8222C117.603 22.0507 117.451 21.2862 117.154 20.5737C116.856 19.8611 116.418 19.2149 115.865 18.6727C115.313 18.1305 114.657 17.7034 113.936 17.4163C113.215 17.1292 112.444 16.988 111.668 17.0008C110.892 17.0136 110.126 17.1803 109.415 17.4911C108.704 17.8019 108.063 18.2505 107.529 18.8106C106.995 19.3707 106.579 20.0312 106.305 20.7531L101.458 32.798C101.023 33.8734 100.275 34.7949 99.3081 35.4439C98.3417 36.0928 97.2019 36.4395 96.0356 36.4392H65.1646C63.9983 36.4395 62.8585 36.0928 61.8921 35.4439C60.9257 34.7949 60.1769 33.8734 59.742 32.798L54.8951 20.7531C54.6212 20.0312 54.2051 19.3707 53.6711 18.8106C53.1371 18.2505 52.4959 17.8019 51.7852 17.4911C51.0745 17.1803 50.3086 17.0136 49.5322 17.0008C48.7558 16.988 47.9847 17.1292 47.264 17.4163C46.5433 17.7034 45.8875 18.1305 45.335 18.6727C44.7825 19.2149 44.3445 19.8611 44.0466 20.5737C43.7487 21.2862 43.5969 22.0507 43.6001 22.8222C43.6034 23.5938 43.7615 24.357 44.0653 25.067ZM65.0402 164H96.16C97.7076 164 99.1917 163.389 100.286 162.302C101.38 161.214 101.995 159.74 101.995 158.202C101.995 156.664 101.38 155.189 100.286 154.102C99.1917 153.014 97.7076 152.404 96.16 152.404H65.0402C63.4926 152.404 62.0085 153.014 60.9142 154.102C59.8199 155.189 59.2052 156.664 59.2052 158.202C59.2052 159.74 59.8199 161.214 60.9142 162.302C62.0085 163.389 63.4926 164 65.0402 164Z" fill="#002548"/>
</svg>
