<svg width="200" height="200" viewBox="0 0 200 200" fill="none" xmlns="http://www.w3.org/2000/svg">
<g clip-path="url(#clip0_132_17)">
<path d="M46.8174 24C51.0321 24.0001 55.0611 25.7011 58.0225 28.708C60.9818 31.7129 62.6338 35.7754 62.6338 39.999V40C62.6331 43.1718 61.6994 46.2764 59.9453 48.915C58.7115 50.771 57.1088 52.3364 55.249 53.5205V83.293L53.6602 84.4941L44.7969 91.1914L38.3848 96.0361V53.5195C36.5254 52.3351 34.923 50.7698 33.6895 48.9141C31.9357 46.2758 31.0016 43.1723 31 40.001V39.999C31 35.7754 32.652 31.7129 35.6113 28.708C38.5727 25.701 42.6026 24 46.8174 24ZM153.182 24.2041C157.349 24.2042 161.338 25.8675 164.292 28.8154C167.244 31.7615 168.928 35.7544 168.999 39.9307L169 39.9658V40.001C168.998 43.1729 168.065 46.2772 166.311 48.916C165.076 50.7727 163.474 52.3396 161.613 53.5244V96.0361L155.201 91.1914L146.338 84.4941L144.749 83.293V53.5205C142.889 52.3363 141.287 50.7708 140.053 48.915C138.298 46.2767 137.364 43.1726 137.362 40.001V39.9658L137.363 39.9307C137.435 35.7544 139.118 31.7615 142.07 28.8154C145.024 25.8674 149.014 24.2041 153.182 24.2041Z" fill="#38D4FF" stroke="#002548" stroke-width="8"/>
<path d="M100.001 56.6663C52.507 56.6663 14.0001 98.3682 14.0001 149.836C14.0001 177.552 52.507 200 100.001 200C147.51 200 186.002 177.552 186.002 149.836C186.002 98.3682 147.51 56.6663 100.001 56.6663ZM100.001 185.668C57.766 185.668 28.3321 166.784 28.3321 149.836C28.3321 106.364 60.4815 70.9984 100.001 70.9984C139.516 70.9984 171.668 106.364 171.668 149.836C171.668 166.784 142.241 185.668 100.001 185.668Z" fill="#002548"/>
<mask id="path-3-outside-1_132_17" maskUnits="userSpaceOnUse" x="38.25" y="96.833" width="124" height="76" fill="black">
<rect fill="white" x="38.25" y="96.833" width="124" height="76"/>
<path d="M143.002 106.833C149.652 117.837 153.752 133.038 153.752 149.836C153.751 157.752 129.684 164.168 100.001 164.168C70.3053 164.168 46.2517 157.752 46.251 149.836C46.251 133.038 50.3531 117.837 57.001 106.833C85.6951 116.745 116.462 116.031 143.002 106.833ZM73.126 131.917C68.1745 131.917 64.1691 135.927 64.1689 140.874C64.1678 142.051 64.399 143.216 64.8486 144.304C65.2983 145.391 65.9572 146.38 66.7891 147.212C67.6209 148.044 68.6091 148.704 69.6963 149.154C70.7835 149.604 71.9492 149.837 73.126 149.836C74.3027 149.836 75.4685 149.604 76.5557 149.154C77.6427 148.704 78.6302 148.044 79.4619 147.212C80.2938 146.38 80.9536 145.391 81.4033 144.304C81.853 143.216 82.0841 142.051 82.083 140.874C82.0829 135.927 78.0773 131.917 73.126 131.917ZM126.877 131.917C121.921 131.917 117.917 135.927 117.917 140.874C117.916 142.051 118.147 143.217 118.597 144.305C119.046 145.392 119.706 146.381 120.538 147.213C121.37 148.045 122.359 148.705 123.446 149.155C124.534 149.605 125.7 149.837 126.877 149.836C128.054 149.837 129.219 149.605 130.307 149.155C131.394 148.705 132.383 148.045 133.215 147.213C134.047 146.381 134.707 145.392 135.156 144.305C135.606 143.217 135.837 142.051 135.836 140.874C135.836 135.927 131.832 131.917 126.877 131.917Z"/>
</mask>
<path d="M143.002 106.833C149.652 117.837 153.752 133.038 153.752 149.836C153.751 157.752 129.684 164.168 100.001 164.168C70.3053 164.168 46.2517 157.752 46.251 149.836C46.251 133.038 50.3531 117.837 57.001 106.833C85.6951 116.745 116.462 116.031 143.002 106.833ZM73.126 131.917C68.1745 131.917 64.1691 135.927 64.1689 140.874C64.1678 142.051 64.399 143.216 64.8486 144.304C65.2983 145.391 65.9572 146.38 66.7891 147.212C67.6209 148.044 68.6091 148.704 69.6963 149.154C70.7835 149.604 71.9492 149.837 73.126 149.836C74.3027 149.836 75.4685 149.604 76.5557 149.154C77.6427 148.704 78.6302 148.044 79.4619 147.212C80.2938 146.38 80.9536 145.391 81.4033 144.304C81.853 143.216 82.0841 142.051 82.083 140.874C82.0829 135.927 78.0773 131.917 73.126 131.917ZM126.877 131.917C121.921 131.917 117.917 135.927 117.917 140.874C117.916 142.051 118.147 143.217 118.597 144.305C119.046 145.392 119.706 146.381 120.538 147.213C121.37 148.045 122.359 148.705 123.446 149.155C124.534 149.605 125.7 149.837 126.877 149.836C128.054 149.837 129.219 149.605 130.307 149.155C131.394 148.705 132.383 148.045 133.215 147.213C134.047 146.381 134.707 145.392 135.156 144.305C135.606 143.217 135.837 142.051 135.836 140.874C135.836 135.927 131.832 131.917 126.877 131.917Z" fill="#002548"/>
<path d="M143.002 106.833L149.849 102.695L146.5 97.1539L140.382 99.2741L143.002 106.833ZM153.752 149.836L161.752 149.837V149.836H153.752ZM100.001 164.168L100.001 172.168H100.001V164.168ZM46.251 149.836H38.251V149.837L46.251 149.836ZM57.001 106.833L59.6129 99.2714L53.4986 97.1594L50.1536 102.696L57.001 106.833ZM73.126 131.917L73.1261 123.917H73.126V131.917ZM64.1689 140.874L72.1689 140.882V140.874L64.1689 140.874ZM64.8486 144.304L57.4557 147.361L57.4558 147.361L64.8486 144.304ZM66.7891 147.212L61.1307 152.867L61.1308 152.867L66.7891 147.212ZM69.6963 149.154L66.6355 156.546L66.6357 156.546L69.6963 149.154ZM73.126 149.836L73.1297 141.836L73.1221 141.836L73.126 149.836ZM76.5557 149.154L79.6162 156.546L79.6167 156.546L76.5557 149.154ZM79.4619 147.212L85.12 152.868L85.1201 152.867L79.4619 147.212ZM81.4033 144.304L88.7962 147.361L88.7962 147.361L81.4033 144.304ZM82.083 140.874L74.083 140.874L74.083 140.882L82.083 140.874ZM126.877 131.917L126.877 123.917H126.877V131.917ZM117.917 140.874L125.917 140.884V140.874L117.917 140.874ZM118.597 144.305L111.204 147.361L111.204 147.361L118.597 144.305ZM120.538 147.213L114.88 152.869L114.881 152.869L120.538 147.213ZM123.446 149.155L120.388 156.548L120.388 156.548L123.446 149.155ZM126.877 149.836L126.884 141.836L126.877 141.836L126.869 141.836L126.877 149.836ZM130.307 149.155L133.365 156.548L133.365 156.548L130.307 149.155ZM133.215 147.213L138.872 152.869L138.873 152.869L133.215 147.213ZM135.156 144.305L142.549 147.361L142.549 147.361L135.156 144.305ZM135.836 140.874L127.836 140.874L127.836 140.884L135.836 140.874ZM143.002 106.833L136.155 110.971C141.93 120.526 145.752 134.243 145.752 149.836H153.752H161.752C161.752 131.832 157.374 115.148 149.849 102.695L143.002 106.833ZM153.752 149.836L145.752 149.835C145.752 147.491 147.412 147.291 145.261 148.647C143.51 149.751 140.445 151.041 135.946 152.241C127.065 154.608 114.353 156.168 100.001 156.168V164.168V172.168C115.331 172.168 129.494 170.52 140.068 167.701C145.296 166.307 150.104 164.508 153.793 162.183C157.082 160.109 161.751 156.139 161.752 149.837L153.752 149.836ZM100.001 164.168L100.001 156.168C85.642 156.168 72.9304 154.608 64.0517 152.241C59.5538 151.041 56.4906 149.751 54.741 148.648C52.5922 147.293 54.2508 147.493 54.251 149.835L46.251 149.836L38.251 149.837C38.2516 156.137 42.9171 160.107 46.2065 162.182C49.8952 164.508 54.7015 166.306 59.9291 167.7C70.5013 170.52 84.6643 172.168 100.001 172.168L100.001 164.168ZM46.251 149.836H54.251C54.251 134.244 58.0749 120.526 63.8484 110.97L57.001 106.833L50.1536 102.696C42.6313 115.147 38.251 131.831 38.251 149.836H46.251ZM57.001 106.833L54.3891 114.395C84.8374 124.912 117.448 124.156 145.622 114.392L143.002 106.833L140.382 99.2741C115.477 107.906 86.5529 108.577 59.6129 99.2714L57.001 106.833ZM73.126 131.917V123.917C63.7536 123.917 56.1692 131.511 56.1689 140.874L64.1689 140.874L72.1689 140.874C72.169 140.343 72.5955 139.917 73.126 139.917V131.917ZM64.1689 140.874L56.1689 140.866C56.1668 143.096 56.6047 145.303 57.4557 147.361L64.8486 144.304L72.2415 141.247C72.1932 141.13 72.1688 141.006 72.1689 140.882L64.1689 140.874ZM64.8486 144.304L57.4558 147.361C58.3058 149.416 59.553 151.289 61.1307 152.867L66.7891 147.212L72.4474 141.557C72.3615 141.471 72.2907 141.366 72.2415 141.247L64.8486 144.304ZM66.7891 147.212L61.1308 152.867C62.7073 154.445 64.5786 155.694 66.6355 156.546L69.6963 149.154L72.7571 141.763C72.6397 141.714 72.5345 141.644 72.4473 141.556L66.7891 147.212ZM69.6963 149.154L66.6357 156.546C68.6924 157.397 70.8992 157.837 73.1298 157.836L73.126 149.836L73.1221 141.836C72.9992 141.836 72.8747 141.812 72.7569 141.763L69.6963 149.154ZM73.126 149.836L73.1222 157.836C75.3527 157.837 77.5595 157.397 79.6162 156.546L76.5557 149.154L73.4951 141.763C73.3774 141.812 73.2527 141.836 73.1297 141.836L73.126 149.836ZM76.5557 149.154L79.6167 156.546C81.6756 155.693 83.5455 154.443 85.12 152.868L79.4619 147.212L73.8039 141.556C73.7149 141.645 73.6097 141.715 73.4947 141.763L76.5557 149.154ZM79.4619 147.212L85.1201 152.867C86.6955 151.291 87.9447 149.42 88.7962 147.361L81.4033 144.304L74.0104 141.247C73.9626 141.362 73.8922 141.468 73.8037 141.556L79.4619 147.212ZM81.4033 144.304L88.7962 147.361C89.6472 145.303 90.0851 143.096 90.083 140.866L82.083 140.874L74.083 140.882C74.0831 141.006 74.0588 141.13 74.0104 141.247L81.4033 144.304ZM82.083 140.874L90.083 140.874C90.0828 131.511 82.4982 123.917 73.1261 123.917L73.126 131.917L73.1259 139.917C73.6565 139.917 74.083 140.343 74.083 140.874L82.083 140.874ZM126.877 131.917V123.917C117.501 123.917 109.917 131.51 109.917 140.874L117.917 140.874L125.917 140.874C125.917 140.343 126.341 139.917 126.877 139.917V131.917ZM117.917 140.874L109.917 140.864C109.914 143.096 110.353 145.304 111.204 147.361L118.597 144.305L125.99 141.248C125.941 141.13 125.917 141.006 125.917 140.884L117.917 140.874ZM118.597 144.305L111.204 147.361C112.055 149.421 113.304 151.292 114.88 152.869L120.538 147.213L126.196 141.557C126.108 141.469 126.038 141.364 125.99 141.248L118.597 144.305ZM120.538 147.213L114.881 152.869C116.457 154.446 118.329 155.696 120.388 156.548L123.446 149.155L126.505 141.763C126.388 141.715 126.283 141.645 126.196 141.557L120.538 147.213ZM123.446 149.155L120.388 156.548C122.445 157.398 124.652 157.838 126.885 157.836L126.877 149.836L126.869 141.836C126.748 141.836 126.623 141.812 126.505 141.763L123.446 149.155ZM126.877 149.836L126.87 157.836C129.102 157.838 131.309 157.398 133.365 156.548L130.307 149.155L127.248 141.763C127.129 141.812 127.005 141.836 126.884 141.836L126.877 149.836ZM130.307 149.155L133.365 156.548C135.424 155.696 137.296 154.446 138.872 152.869L133.215 147.213L127.557 141.557C127.469 141.645 127.364 141.715 127.248 141.763L130.307 149.155ZM133.215 147.213L138.873 152.869C140.449 151.292 141.698 149.421 142.549 147.361L135.156 144.305L127.763 141.248C127.715 141.364 127.645 141.469 127.557 141.557L133.215 147.213ZM135.156 144.305L142.549 147.361C143.4 145.304 143.839 143.096 143.836 140.864L135.836 140.874L127.836 140.884C127.836 141.006 127.812 141.13 127.763 141.248L135.156 144.305ZM135.836 140.874L143.836 140.874C143.836 131.511 136.253 123.917 126.877 123.917L126.877 131.917L126.877 139.917C127.412 139.917 127.836 140.343 127.836 140.874L135.836 140.874Z" fill="#38D4FF" mask="url(#path-3-outside-1_132_17)"/>
<path d="M88.5342 15C92.0338 15 95.3818 16.3663 97.8906 18.792L98.1309 19.0293L98.165 19.0654L98.5557 19.4824L98.5869 19.5176C99.626 20.6808 100.459 22.0148 101.049 23.4609C101.723 25.1134 102.07 26.8823 102.069 28.667V46C102.069 48.675 99.9687 50.859 97.3271 50.9932L97.0693 51C94.3079 51 92.0693 48.7614 92.0693 46V42.333H85V46C85 48.6753 82.8989 50.8595 80.2568 50.9932L80 51C77.2386 51 75 48.7614 75 46V28.667C74.9997 26.8823 75.3461 25.1134 76.0205 23.4609C76.6947 21.809 77.6843 20.3016 78.9385 19.0293C81.4714 16.4556 84.922 15.0001 88.5342 15ZM121 15C123.761 15 126 17.2386 126 20C126 22.7614 123.761 25 121 25H119.599V41H121C123.761 41 126 43.2386 126 46C126 48.7614 123.761 51 121 51H108.198C105.437 51 103.198 48.7614 103.198 46C103.198 43.2386 105.437 41 108.198 41H109.599V25H108.198C105.437 25 103.198 22.7614 103.198 20C103.198 17.2386 105.437 15 108.198 15H121ZM85 32.333H92.0693V28.665C92.0694 28.1732 91.9742 27.6882 91.791 27.2393C91.609 26.7932 91.3443 26.3918 91.0156 26.0566L91.0039 26.0449C90.3371 25.3669 89.448 25 88.5342 25C87.6207 25.0001 86.7323 25.3669 86.0654 26.0449C86.0616 26.0489 86.0576 26.0527 86.0537 26.0566C85.7251 26.3918 85.4604 26.7932 85.2783 27.2393C85.0951 27.6882 84.9999 28.1732 85 28.665V32.333Z" fill="#38D4FF" stroke="#002548" stroke-width="4" stroke-miterlimit="10" stroke-linecap="round" stroke-linejoin="round"/>
</g>
<defs>
<clipPath id="clip0_132_17">
<rect width="200" height="200" fill="white"/>
</clipPath>
</defs>
</svg>
