<svg width="200" height="200" viewBox="0 0 200 200" fill="none" xmlns="http://www.w3.org/2000/svg">
<g clip-path="url(#clip0_130_17)">
<path d="M68.6199 87.4481V62.3438C68.6195 60.6954 68.9441 59.0632 69.5752 57.5405C70.2062 56.0177 71.1314 54.6344 72.2977 53.4695C74.6512 51.1129 77.8426 49.7918 81.1719 49.7918C84.5012 49.7918 87.6926 51.1129 90.0461 53.4695C91.2124 54.6344 92.1375 56.0177 92.7686 57.5405C93.3997 59.0632 93.7243 60.6954 93.7238 62.3438V87.4481M68.6199 74.8957H93.7238M112.552 49.7918H131.38M112.552 87.4481H131.38M121.966 49.7918V87.4481" stroke="#38D4FF" stroke-width="11.7188" stroke-miterlimit="10" stroke-linecap="round" stroke-linejoin="round"/>
<path d="M30.9637 162.76C37.8959 162.76 43.5157 157.14 43.5157 150.208C43.5157 143.276 37.8959 137.656 30.9637 137.656C24.0314 137.656 18.4117 143.276 18.4117 150.208C18.4117 157.14 24.0314 162.76 30.9637 162.76Z" stroke="#002548" stroke-width="11.7188" stroke-miterlimit="10" stroke-linecap="round" stroke-linejoin="round"/>
<path d="M169.036 162.76C175.969 162.76 181.588 157.14 181.588 150.208C181.588 143.276 175.969 137.656 169.036 137.656C162.104 137.656 156.484 143.276 156.484 150.208C156.484 157.14 162.104 162.76 169.036 162.76Z" stroke="#002548" stroke-width="11.7188" stroke-miterlimit="10" stroke-linecap="round" stroke-linejoin="round"/>
<path d="M125.104 194.141C132.037 194.141 137.656 188.521 137.656 181.589C137.656 174.656 132.037 169.037 125.104 169.037C118.172 169.037 112.552 174.656 112.552 181.589C112.552 188.521 118.172 194.141 125.104 194.141Z" stroke="#002548" stroke-width="11.7188" stroke-miterlimit="10" stroke-linecap="round" stroke-linejoin="round"/>
<path d="M74.8957 194.141C81.828 194.141 87.4477 188.521 87.4477 181.589C87.4477 174.656 81.828 169.037 74.8957 169.037C67.9634 169.037 62.3438 174.656 62.3438 181.589C62.3438 188.521 67.9634 194.141 74.8957 194.141Z" stroke="#002548" stroke-width="11.7188" stroke-miterlimit="10" stroke-linecap="round" stroke-linejoin="round"/>
<path d="M39.8379 141.334L56.0676 125.104V112.552M160.162 141.334L143.932 125.104V112.552M112.552 112.552V137.656L125.104 150.208V169.036M87.448 112.552V137.656L74.8957 150.208V169.036" stroke="#002548" stroke-width="11.7188" stroke-miterlimit="10" stroke-linecap="round" stroke-linejoin="round"/>
<path d="M59.8992 31.8328C66.7715 16.5289 82.1508 5.85938 100 5.85938C117.849 5.85938 133.229 16.5289 140.101 31.8328C142.379 31.2538 144.72 30.9618 147.07 30.9637C162.657 30.9637 175.312 43.6195 175.312 59.2059V74.8961C185.702 74.8961 194.141 83.3344 194.141 93.7242C194.141 104.114 185.702 112.552 175.312 112.552H24.6875C14.2977 112.552 5.85938 104.114 5.85938 93.7242C5.85938 83.3344 14.2977 74.8961 24.6875 74.8961V59.2059C24.6875 43.6195 37.343 30.9637 52.9297 30.9637C55.3332 30.9637 57.6711 31.2648 59.8992 31.8328Z" stroke="#002548" stroke-width="11.7188" stroke-miterlimit="10" stroke-linecap="round" stroke-linejoin="round"/>
</g>
<defs>
<clipPath id="clip0_130_17">
<rect width="200" height="200" fill="white"/>
</clipPath>
</defs>
</svg>
