<svg width="200" height="200" viewBox="0 0 200 200" fill="none" xmlns="http://www.w3.org/2000/svg">
<circle cx="100.4" cy="153.4" r="14" fill="#38D4FF"/>
<circle cx="160.4" cy="153.4" r="14" fill="#38D4FF"/>
<circle cx="38.4" cy="153.4" r="14" fill="#38D4FF"/>
<path d="M160.9 112.4C132.9 127.9 60.8787 116.4 47.9 116.4C34.9213 116.4 24.4 105.879 24.4 92.8999C24.4 79.9212 35.9324 61.364 48.9 61.8999C109.4 64.3999 94.4 115.9 160.9 112.4Z" fill="#38D4FF"/>
<path d="M161.006 134.131C152.158 134.131 144.706 140.192 142.604 148.366H138.899C136.868 148.366 135.216 146.72 135.216 144.695V121.892H149.686C166.401 121.892 180 108.337 180 91.6743C180 75.012 166.401 61.4567 149.686 61.4567C148.187 61.4567 146.696 61.5676 145.221 61.7853C139.448 41.9413 121.156 28 100 28C78.8441 28 60.5519 41.9413 54.7791 61.7853C53.3007 61.5661 51.8081 61.4563 50.3134 61.4567C33.5987 61.4567 20 75.0123 20 91.673C20 108.335 33.5987 121.891 50.3137 121.891H64.7841V144.695C64.7841 146.719 63.1322 148.366 61.1009 148.366H57.3962C55.2941 140.192 47.8419 134.131 38.9941 134.131C28.5206 134.131 20 142.626 20 153.066C20 163.506 28.5206 172 38.9941 172C47.8419 172 55.2941 165.94 57.3962 157.764H61.1009C68.33 157.764 74.2116 151.901 74.2116 144.695V121.892H95.2856V134.722C87.085 136.818 81.0059 144.248 81.0059 153.066C81.0059 163.506 89.5263 172 100 172C110.474 172 118.994 163.506 118.994 153.066C118.994 144.248 112.914 136.818 104.714 134.722V121.892H125.788V144.695C125.788 151.901 131.67 157.764 138.899 157.764H142.604C144.706 165.94 152.158 172 161.006 172C171.479 172 180 163.506 180 153.066C180 142.625 171.479 134.131 161.006 134.131ZM38.9937 162.602C33.7191 162.602 29.4272 158.324 29.4272 153.066C29.4272 147.807 33.7191 143.529 38.9937 143.529C44.2697 143.529 48.5606 147.806 48.5606 153.066C48.5606 158.324 44.27 162.602 38.9937 162.602ZM109.566 153.066C109.566 158.324 105.274 162.602 99.9997 162.602C94.725 162.602 90.4331 158.324 90.4331 153.066C90.4331 147.807 94.725 143.529 99.9997 143.529C105.274 143.529 109.566 147.806 109.566 153.066ZM29.4275 91.673C29.4275 80.1936 38.7962 70.8543 50.3137 70.8543C52.5269 70.8543 54.7169 71.2026 56.8213 71.8901C57.4619 72.0994 58.1402 72.1693 58.8102 72.095C59.4803 72.0208 60.1266 71.8041 60.7055 71.4595C61.2844 71.115 61.7823 70.6507 62.1658 70.098C62.5493 69.5452 62.8094 68.9169 62.9284 68.2554C66.1512 50.3751 81.7419 37.3976 100 37.3976C118.258 37.3976 133.849 50.3751 137.072 68.2554C137.191 68.9169 137.451 69.5453 137.834 70.0981C138.217 70.6509 138.715 71.1153 139.294 71.4598C139.873 71.8044 140.52 72.021 141.19 72.0953C141.86 72.1695 142.538 72.0995 143.179 71.8901C145.279 71.2033 147.476 70.8537 149.686 70.8543C161.202 70.8543 170.572 80.1933 170.572 91.673C170.572 103.154 161.204 112.493 149.686 112.493H50.3137C38.7962 112.493 29.4275 103.154 29.4275 91.673ZM161.006 162.602C155.73 162.602 151.439 158.324 151.439 153.066C151.439 147.807 155.73 143.528 161.006 143.528C166.281 143.528 170.572 147.807 170.572 153.066C170.572 158.324 166.281 162.602 161.006 162.602H161.006Z" fill="#002548"/>
</svg>
