<svg width="200" height="200" viewBox="0 0 200 200" fill="none" xmlns="http://www.w3.org/2000/svg">
<path d="M83.9416 133.732C76.0657 140.514 65.8109 144.614 54.6001 144.614C29.7474 144.614 9.6001 124.467 9.6001 99.6144C9.6001 74.7617 29.7474 54.6144 54.6001 54.6144C79.4528 54.6144 99.6001 74.7617 99.6001 99.6144" stroke="#002548" stroke-width="12" stroke-miterlimit="10" stroke-linecap="round" stroke-linejoin="round"/>
<path d="M115.259 65.4965C123.135 58.7148 133.389 54.6144 144.6 54.6144C169.453 54.6144 189.6 74.7617 189.6 99.6144C189.6 124.467 169.453 144.614 144.6 144.614C119.747 144.614 99.6001 124.467 99.6001 99.6144M115.259 65.4965L117.504 49.7999M115.259 65.4965L130.56 69.1092" stroke="#002548" stroke-width="12" stroke-miterlimit="10" stroke-linecap="round" stroke-linejoin="round"/>
<path d="M81.6956 149.429L83.9415 133.732L68.6404 130.12" stroke="#002548" stroke-width="12" stroke-miterlimit="10" stroke-linecap="round" stroke-linejoin="round"/>
<path d="M67.3446 96.6268C67.3446 103.665 61.6388 109.372 54.5997 109.372C47.5611 109.372 41.8552 103.665 41.8552 96.6268C41.8552 89.5881 47.5611 83.8819 54.5997 83.8819C61.6388 83.8819 67.3446 89.5881 67.3446 96.6268Z" stroke="#38D4FF" stroke-width="10" stroke-miterlimit="10" stroke-linecap="round" stroke-linejoin="round"/>
<path d="M54.6001 83.8823V76.8216" stroke="#38D4FF" stroke-width="10" stroke-miterlimit="10" stroke-linecap="round" stroke-linejoin="round"/>
<path d="M41.8556 96.6268H34.7949" stroke="#38D4FF" stroke-width="10" stroke-miterlimit="10" stroke-linecap="round" stroke-linejoin="round"/>
<path d="M67.3445 96.6268H74.4052" stroke="#38D4FF" stroke-width="10" stroke-miterlimit="10" stroke-linecap="round" stroke-linejoin="round"/>
<path d="M54.6001 109.371V116.432" stroke="#38D4FF" stroke-width="10" stroke-miterlimit="10" stroke-linecap="round" stroke-linejoin="round"/>
<path d="M63.6121 87.6149L68.6046 82.6223" stroke="#38D4FF" stroke-width="10" stroke-miterlimit="10" stroke-linecap="round" stroke-linejoin="round"/>
<path d="M45.588 87.6149L40.5955 82.6223" stroke="#38D4FF" stroke-width="10" stroke-miterlimit="10" stroke-linecap="round" stroke-linejoin="round"/>
<path d="M63.6121 105.639L68.6046 110.631" stroke="#38D4FF" stroke-width="10" stroke-miterlimit="10" stroke-linecap="round" stroke-linejoin="round"/>
<path d="M45.588 105.639L40.5955 110.631" stroke="#38D4FF" stroke-width="10" stroke-miterlimit="10" stroke-linecap="round" stroke-linejoin="round"/>
<path d="M131.855 102.221C131.855 109.26 137.561 114.966 144.6 114.966C151.639 114.966 157.345 109.26 157.345 102.221C157.345 95.1827 151.639 89.4765 144.6 89.4765C137.561 89.4765 131.855 95.1827 131.855 102.221Z" stroke="#38D4FF" stroke-width="10" stroke-miterlimit="10" stroke-linecap="round" stroke-linejoin="round"/>
<path d="M144.6 89.4769V82.4162" stroke="#38D4FF" stroke-width="10" stroke-miterlimit="10" stroke-linecap="round" stroke-linejoin="round"/>
<path d="M157.344 102.221H164.405" stroke="#38D4FF" stroke-width="10" stroke-miterlimit="10" stroke-linecap="round" stroke-linejoin="round"/>
<path d="M131.856 102.221H124.795" stroke="#38D4FF" stroke-width="10" stroke-miterlimit="10" stroke-linecap="round" stroke-linejoin="round"/>
<path d="M144.6 114.966V122.027" stroke="#38D4FF" stroke-width="10" stroke-miterlimit="10" stroke-linecap="round" stroke-linejoin="round"/>
<path d="M135.588 93.2098L130.596 88.2173" stroke="#38D4FF" stroke-width="10" stroke-miterlimit="10" stroke-linecap="round" stroke-linejoin="round"/>
<path d="M153.612 93.2098L158.605 88.2173" stroke="#38D4FF" stroke-width="10" stroke-miterlimit="10" stroke-linecap="round" stroke-linejoin="round"/>
<path d="M135.588 111.233L130.596 116.226" stroke="#38D4FF" stroke-width="10" stroke-miterlimit="10" stroke-linecap="round" stroke-linejoin="round"/>
<path d="M153.612 111.233L158.605 116.226" stroke="#38D4FF" stroke-width="10" stroke-miterlimit="10" stroke-linecap="round" stroke-linejoin="round"/>
</svg>
