<svg width="200" height="200" viewBox="0 0 200 200" fill="none" xmlns="http://www.w3.org/2000/svg">
<path fill-rule="evenodd" clip-rule="evenodd" d="M96.627 86.0409C96.627 83.8648 97.4914 81.7778 99.0302 80.239C100.569 78.7003 102.656 77.8358 104.832 77.8358H166.371C168.547 77.8358 170.634 78.7003 172.172 80.239C173.711 81.7778 174.576 83.8648 174.576 86.0409V127.067C174.576 129.243 173.711 131.33 172.172 132.868C170.634 134.407 168.547 135.272 166.371 135.272H104.832C102.656 135.272 100.569 134.407 99.0302 132.868C97.4914 131.33 96.627 129.243 96.627 127.067V86.0409Z" fill="#38D4FF"/>
<path fill-rule="evenodd" clip-rule="evenodd" d="M22.6001 144.686C22.6001 144.079 24.4189 143.498 27.6564 143.069C30.8938 142.641 35.2848 142.4 39.8633 142.4H169.337C173.915 142.4 178.306 142.641 181.544 143.069C184.781 143.498 186.6 144.079 186.6 144.686V156.114C186.6 156.72 184.781 157.302 181.544 157.73C178.306 158.159 173.915 158.4 169.337 158.4H39.8633C35.2848 158.4 30.8938 158.159 27.6564 157.73C24.4189 157.302 22.6001 156.72 22.6001 156.114V144.686Z" fill="#38D4FF"/>
<path d="M12.1001 71.8999L35.1001 63.8999L70.6001 40.3999L91.6001 98.8999L49.1001 103.4L56.1001 126.4L46.1001 131.4L36.6001 107.15L24.1001 110.9L12.1001 71.8999Z" fill="#38D4FF"/>
<path fill-rule="evenodd" clip-rule="evenodd" d="M133.505 91.9445C132.698 91.4402 131.771 91.161 130.82 91.1357C129.869 91.1105 128.928 91.3402 128.095 91.801C127.263 92.2619 126.569 92.937 126.085 93.7565C125.602 94.576 125.346 95.5099 125.345 96.4615V112.535C125.345 113.487 125.6 114.422 126.084 115.242C126.567 116.062 127.261 116.738 128.094 117.199C128.926 117.66 129.867 117.89 130.819 117.865C131.77 117.84 132.698 117.561 133.505 117.056L146.362 109.019C147.129 108.54 147.761 107.873 148.199 107.082C148.637 106.292 148.866 105.402 148.866 104.498C148.866 103.594 148.637 102.705 148.199 101.914C147.761 101.123 147.129 100.457 146.362 99.9774L133.505 91.9445ZM138.116 104.502L133.55 107.358V101.647L138.116 104.502Z" fill="#002548"/>
<path fill-rule="evenodd" clip-rule="evenodd" d="M96.6001 28.1142C96.6001 26.3334 97.4651 24.6256 99.0049 23.3665C100.545 22.1073 102.633 21.3999 104.811 21.3999H166.39C168.567 21.3999 170.656 22.1073 172.195 23.3665C173.735 24.6256 174.6 26.3334 174.6 28.1142V61.6856C174.6 63.4664 173.735 65.1742 172.195 66.4333C170.656 67.6925 168.567 68.3999 166.39 68.3999H104.811C102.633 68.3999 100.545 67.6925 99.0049 66.4333C97.4651 65.1742 96.6001 63.4664 96.6001 61.6856V28.1142Z" fill="#38D4FF"/>
<path fill-rule="evenodd" clip-rule="evenodd" d="M96.627 86.0409C96.627 83.8648 97.4914 81.7778 99.0302 80.239C100.569 78.7003 102.656 77.8358 104.832 77.8358H166.371C168.547 77.8358 170.634 78.7003 172.172 80.239C173.711 81.7778 174.576 83.8648 174.576 86.0409V127.067C174.576 129.243 173.711 131.33 172.172 132.868C170.634 134.407 168.547 135.272 166.371 135.272H104.832C102.656 135.272 100.569 134.407 99.0302 132.868C97.4914 131.33 96.627 129.243 96.627 127.067V86.0409ZM166.371 86.0409H104.832V127.067H166.371V86.0409Z" fill="#002548"/>
<path fill-rule="evenodd" clip-rule="evenodd" d="M104.832 20.3999C102.656 20.3999 100.569 21.2644 99.0303 22.8031C97.4915 24.3419 96.627 26.4289 96.627 28.605V40.9127H76.065C73.986 38.9871 71.3063 37.8376 68.4781 37.6582C65.65 37.4788 62.8466 38.2806 60.5409 39.9281L59.1583 40.9127H30.986C27.7218 40.9127 24.5913 42.2094 22.2832 44.5176C19.975 46.8257 18.6783 49.9562 18.6783 53.2204V64.1086L17.0209 64.6584C15.4873 65.1688 14.0693 65.9763 12.8478 67.0348C11.6263 68.0933 10.6252 69.382 9.90178 70.8274C9.17833 72.2727 8.74667 73.8464 8.63142 75.4586C8.51618 77.0708 8.71962 78.6899 9.23012 80.2235L17.5665 105.261C17.8537 106.123 18.2311 106.939 18.6783 107.69V151.682C18.6783 154.946 19.975 158.077 22.2832 160.385C24.5913 162.693 27.7218 163.99 30.986 163.99H88.4219V172.195H39.1911C38.1031 172.195 37.0596 172.627 36.2902 173.396C35.5208 174.166 35.0886 175.209 35.0886 176.297C35.0886 177.385 35.5208 178.429 36.2902 179.198C37.0596 179.968 38.1031 180.4 39.1911 180.4H170.473C171.561 180.4 172.605 179.968 173.374 179.198C174.144 178.429 174.576 177.385 174.576 176.297C174.576 175.209 174.144 174.166 173.374 173.396C172.605 172.627 171.561 172.195 170.473 172.195H121.242V163.99H178.678C181.943 163.99 185.073 162.693 187.381 160.385C189.689 158.077 190.986 154.946 190.986 151.682V53.2204C190.986 49.9562 189.689 46.8257 187.381 44.5176C185.073 42.2094 181.943 40.9127 178.678 40.9127H174.576V28.605C174.576 26.4289 173.711 24.3419 172.173 22.8031C170.634 21.2644 168.547 20.3999 166.371 20.3999H104.832ZM113.037 172.195V163.99H96.627V172.195H113.037ZM178.678 155.785H30.986C29.8979 155.785 28.8544 155.352 28.0851 154.583C27.3157 153.814 26.8835 152.77 26.8835 151.682V147.579H182.781V151.682C182.781 152.77 182.349 153.814 181.579 154.583C180.81 155.352 179.766 155.785 178.678 155.785ZM26.8835 113.454V139.374H182.781V53.2204C182.781 52.1323 182.349 51.0888 181.579 50.3195C180.81 49.5501 179.766 49.1178 178.678 49.1178H174.576V61.4255C174.576 63.6017 173.711 65.6887 172.173 67.2274C170.634 68.7662 168.547 69.6307 166.371 69.6307H104.832C102.656 69.6307 100.569 68.7662 99.0303 67.2274C97.4915 65.6887 96.627 63.6017 96.627 61.4255V49.1178H80.3891L94.1614 90.4922C94.7718 92.3262 94.9417 94.2782 94.6572 96.19C94.3728 98.1019 93.6421 99.9199 92.5243 101.497C91.4064 103.074 89.9329 104.365 88.2231 105.266C86.5132 106.168 84.6151 106.654 82.6824 106.685L54.5963 107.136L59.1706 120.876C59.6262 122.21 59.8132 123.622 59.7207 125.029C59.6283 126.436 59.2582 127.811 58.6319 129.075C58.0056 130.338 57.1354 131.465 56.0715 132.391C55.0076 133.317 53.771 134.023 52.433 134.468C51.0951 134.914 49.6821 135.09 48.2757 134.987C46.8692 134.884 45.4971 134.504 44.2383 133.868C42.9795 133.232 41.859 132.353 40.9414 131.283C40.0238 130.212 39.3271 128.97 38.8917 127.629L33.9481 112.777L33.1317 113.052C31.0393 113.75 28.8978 113.852 26.8835 113.454ZM47.6629 49.1178H30.986C29.8979 49.1178 28.8544 49.5501 28.0851 50.3195C27.3157 51.0888 26.8835 52.1323 26.8835 53.2204V61.3763L33.6404 59.1281L47.6629 49.1178ZM112.229 28.605L135.601 44.1866L158.974 28.605H112.229ZM104.832 33.5363V61.4255H166.371V33.5363L140.155 51.0132C138.807 51.9128 137.222 52.3929 135.601 52.3929C133.981 52.3929 132.396 51.9128 131.048 51.0132L104.832 33.5363ZM65.3081 46.603C65.8306 46.2298 66.4335 45.9845 67.0681 45.8868C67.7028 45.7891 68.3515 45.8417 68.9621 46.0405C69.5727 46.2392 70.1282 46.5785 70.5837 47.0311C71.0393 47.4836 71.3822 48.0368 71.585 48.6461L86.3788 93.085C86.5826 93.6965 86.6394 94.3475 86.5447 94.985C86.4499 95.6226 86.2063 96.2289 85.8335 96.7547C85.4607 97.2805 84.9692 97.7111 84.3989 98.0116C83.8287 98.312 83.1956 98.4739 82.5511 98.484L51.8804 98.9763L40.3686 64.404L65.3081 46.603ZM41.7347 110.189L46.4445 108.617L51.3881 123.469C51.4961 123.779 51.5414 124.108 51.5213 124.436C51.5012 124.764 51.416 125.085 51.2708 125.38C51.1256 125.675 50.9233 125.939 50.6755 126.155C50.4278 126.371 50.1395 126.536 49.8275 126.639C49.5156 126.743 49.1861 126.784 48.8582 126.759C48.5303 126.735 48.2106 126.645 47.9176 126.496C47.6246 126.347 47.3642 126.141 47.1514 125.89C46.9387 125.64 46.7779 125.349 46.6783 125.036L41.7347 110.189ZM43.8517 100.835L30.5388 105.266C29.5068 105.608 28.3809 105.527 27.4085 105.04C26.4361 104.553 25.6969 103.7 25.3532 102.669L17.0168 77.6348C16.8464 77.1235 16.7784 76.5837 16.8167 76.0461C16.8551 75.5086 16.9989 74.9838 17.2401 74.5019C17.4812 74.0199 17.815 73.5902 18.2223 73.2373C18.6295 72.8844 19.1024 72.6152 19.6137 72.445L32.9224 68.0143L43.8517 100.835Z" fill="#002548"/>
</svg>
