<svg width="200" height="200" viewBox="0 0 200 200" fill="none" xmlns="http://www.w3.org/2000/svg">
<rect x="20.4" y="120.2" width="158" height="20" fill="#38D4FF"/>
<path d="M60.4 165.2C57.6386 165.2 55.4 167.439 55.4 170.2C55.4 172.961 57.6386 175.2 60.4 175.2V170.2V165.2ZM140.4 175.2C143.161 175.2 145.4 172.961 145.4 170.2C145.4 167.439 143.161 165.2 140.4 165.2V170.2V175.2ZM30.4 30.2V35.2H170.4V30.2V25.2H30.4V30.2ZM180.4 40.2H175.4V130.2H180.4H185.4V40.2H180.4ZM170.4 140.2V135.2H30.4V140.2V145.2H170.4V140.2ZM20.4 130.2H25.4V40.1999H20.4H15.4V130.2H20.4ZM20.4 120.2V125.2H180.4V120.2V115.2H20.4V120.2ZM120.4 140.2H115.4V160.2H120.4H125.4V140.2H120.4ZM120.4 160.2H115.4C115.4 168.484 122.116 175.2 130.4 175.2V170.2V165.2C127.638 165.2 125.4 162.962 125.4 160.2H120.4ZM80.4 140.2H75.4V160.2H80.4H85.4V140.2H80.4ZM80.4 160.2H75.4C75.4 162.962 73.1616 165.2 70.4 165.2V170.2V175.2C78.6844 175.2 85.4 168.484 85.4 160.2H80.4ZM60.4 170.2V175.2H140.4V170.2V165.2H60.4V170.2ZM30.4 140.2V135.2C27.6386 135.2 25.4 132.961 25.4 130.2H20.4H15.4C15.4 138.484 22.1158 145.2 30.4 145.2V140.2ZM180.4 130.2H175.4C175.4 132.961 173.161 135.2 170.4 135.2V140.2V145.2C178.684 145.2 185.4 138.484 185.4 130.2H180.4ZM170.4 30.2V35.2C173.161 35.2 175.4 37.4385 175.4 40.2H180.4H185.4C185.4 31.9157 178.684 25.2 170.4 25.2V30.2ZM30.4 30.2V25.2C22.1158 25.2 15.4 31.9157 15.4 40.1999H20.4H25.4C25.4 37.4385 27.6386 35.2 30.4 35.2V30.2Z" fill="#002548"/>
<path d="M106.542 104.736C111.122 101.782 114.764 96.216 120.214 96.2161L140.4 96.2164C145.923 96.2165 150.504 91.6942 149.413 86.2802C144.805 63.4261 124.612 46.2166 100.4 46.2166C76.1879 46.2166 55.9953 63.4262 51.3873 86.2804C50.2957 91.6943 54.8772 96.2166 60.4 96.2166H80.4827" fill="#38D4FF"/>
<path d="M110.4 96.2159L140.4 96.2164C145.923 96.2165 150.504 91.6942 149.413 86.2802C144.805 63.4261 124.612 46.2166 100.4 46.2166C76.1879 46.2166 55.9953 63.4262 51.3873 86.2804C50.2957 91.6943 54.8772 96.2166 60.4 96.2166H90.4" stroke="#002548" stroke-width="10" stroke-miterlimit="10"/>
<path d="M100.4 106.216C105.923 106.216 110.4 101.739 110.4 96.2159C110.4 90.693 105.923 86.2159 100.4 86.2159C94.8772 86.2159 90.4 90.693 90.4 96.2159C90.4 101.739 94.8772 106.216 100.4 106.216Z" stroke="#002548" stroke-width="10" stroke-miterlimit="10"/>
<path d="M77.4 81.8086C80.7481 72.157 89.7816 65.242 100.4 65.242C111.018 65.242 120.052 72.1567 123.4 81.8086M104.91 83.2L118.649 62.2" stroke="#002548" stroke-width="10" stroke-miterlimit="10" stroke-linecap="round"/>
</svg>
