<svg width="200" height="200" viewBox="0 0 200 200" fill="none" xmlns="http://www.w3.org/2000/svg">
<line x1="87.9275" y1="169.959" x2="87.9275" y2="141.764" stroke="#38D4FF" stroke-width="9.6" stroke-linecap="round"/>
<line x1="114.384" y1="169.328" x2="114.384" y2="141.133" stroke="#38D4FF" stroke-width="9.6" stroke-linecap="round"/>
<path d="M84.7666 66.9051L30.9752 97.8351C28.1448 99.4626 26.4 102.479 26.4 105.743C26.4 110.782 30.4843 114.866 35.5224 114.866H164C169.302 114.866 173.6 110.568 173.6 105.266V64.7242C173.6 56.6253 164.189 52.1657 157.921 57.2942L126.772 82.7799C123.284 85.6335 118.281 85.6771 114.744 82.8848L95.5005 67.6925C92.4199 65.2604 88.1691 64.9486 84.7666 66.9051Z" fill="#38D4FF"/>
<rect x="24.8" y="28.4656" width="150.4" height="111.345" rx="14.4" stroke="#002548" stroke-width="9.6"/>
<line x1="57.5275" y1="171.534" x2="147.455" y2="171.534" stroke="#002548" stroke-width="9.6" stroke-linecap="round"/>
<path d="M26.4 116.466H170.967" stroke="#002548" stroke-width="9.6"/>
</svg>
